HIERARCHY
ROOT Hips
{
  OFFSET 0.000000 0.000000 0.000000
  CHANNELS 6 Xposition Yposition Zposition Zrotation Xrotation Yrotation
  JOINT LeftUpLeg
  {
    OFFSET 8.642590 1.953980 -2.388350
    CHANNELS 3 Zrotation Xrotation Yrotation
    JOINT LeftLeg
    {
      OFFSET 43.770199 0.000000 0.000000
      CHANNELS 3 Zrotation Xrotation Yrotation
      JOINT LeftFoot
      {
        OFFSET 40.623798 0.000000 0.000000
        CHANNELS 3 Zrotation Xrotation Yrotation
        JOINT LeftToeBase
        {
          OFFSET 12.724200 0.000000 0.000000
          CHANNELS 3 Zrotation Xrotation Yrotation
          End Site
          {
            OFFSET 0.000000 0.000000 0.000000
          }
        }
      }
    }
  }
  JOINT RightUpLeg
  {
    OFFSET -8.224900 1.953980 -2.593360
    CHANNELS 3 Zrotation Xrotation Yrotation
    JOINT RightLeg
    {
      OFFSET 43.565300 0.000000 0.000000
      CHANNELS 3 Zrotation Xrotation Yrotation
      JOINT RightFoot
      {
        OFFSET 40.623798 0.000000 0.000000
        CHANNELS 3 Zrotation Xrotation Yrotation
        JOINT RightToeBase
        {
          OFFSET 12.724200 0.000000 0.000000
          CHANNELS 3 Zrotation Xrotation Yrotation
          End Site
          {
            OFFSET 0.000000 0.000000 0.000000
          }
        }
      }
    }
  }
  JOINT Spine
  {
    OFFSET 0.165834 0.877140 6.613490
    CHANNELS 3 Zrotation Xrotation Yrotation
    JOINT Spine1
    {
      OFFSET 7.389630 0.000017 0.000000
      CHANNELS 3 Zrotation Xrotation Yrotation
      JOINT Spine2
      {
        OFFSET 11.944500 0.000011 0.000000
        CHANNELS 3 Zrotation Xrotation Yrotation
        JOINT Spine3
        {
          OFFSET 14.725400 0.000042 0.000000
          CHANNELS 3 Zrotation Xrotation Yrotation
          JOINT Spine4
          {
            OFFSET 10.967900 0.000000 0.000000
            CHANNELS 3 Zrotation Xrotation Yrotation
            JOINT RightShoulder
            {
              OFFSET 2.466160 -1.665300 3.696510
              CHANNELS 3 Zrotation Xrotation Yrotation
              JOINT RightArm
              {
                OFFSET 13.001200 0.000000 0.000000
                CHANNELS 3 Zrotation Xrotation Yrotation
                JOINT RightForeArm
                {
                  OFFSET 28.784800 0.000015 0.000000
                  CHANNELS 3 Zrotation Xrotation Yrotation
                  JOINT RightHand
                  {
                    OFFSET 26.568800 0.000015 0.000000
                    CHANNELS 3 Zrotation Xrotation Yrotation
                    End Site
                    {
                      OFFSET 0.000000 0.000000 0.000000
                    }
                  }
                }
              }
            }
            JOINT LeftShoulder
            {
              OFFSET 2.380340 -1.292750 -3.752300
              CHANNELS 3 Zrotation Xrotation Yrotation
              JOINT LeftArm
              {
                OFFSET 16.318199 0.000061 0.000000
                CHANNELS 3 Zrotation Xrotation Yrotation
                JOINT LeftForeArm
                {
                  OFFSET 27.090099 0.000000 0.000000
                  CHANNELS 3 Zrotation Xrotation Yrotation
                  JOINT LeftHand
                  {
                    OFFSET 24.545099 0.000015 0.000000
                    CHANNELS 3 Zrotation Xrotation Yrotation
                    End Site
                    {
                      OFFSET 0.000000 0.000000 0.000000
                    }
                  }
                }
              }
            }
            JOINT Neck
            {
              OFFSET 5.022600 -0.026634 0.000000
              CHANNELS 3 Zrotation Xrotation Yrotation
              JOINT Head
              {
                OFFSET 6.693640 0.000029 0.000000
                CHANNELS 3 Zrotation Xrotation Yrotation
                End Site
                {
                  OFFSET 0.000000 0.000000 0.000000
                }
              }
            }
          }
        }
      }
    }
  }
}
MOTION
Frames: 10
Frame Time: 0.041667
-16.497099 90.379303 143.464981 -132.891998 -81.512001 -138.031998 -174.776001 18.241301 81.195198 -27.583900 2.097270 -4.195920 65.586304 2.835050 -1.595630 7.813790 -13.445400 3.546780 170.964005 -11.155800 82.968803 -38.487301 -20.714600 -4.622630 60.737000 -0.161817 -0.556574 39.408501 -3.681480 8.799030 1.346340 7.966070 -89.621399 10.938000 2.855660 0.484020 -0.729844 2.874190 0.357755 -23.285700 2.578080 1.320400 -3.273090 2.578090 1.320400 87.112701 -29.250299 -112.781998 38.291599 -7.466000 -12.015500 2.016050 -28.290199 -15.449000 -25.379900 -0.652096 -9.269490 -89.034103 -58.641998 81.756599 -20.292000 6.066080 1.993920 2.089010 9.714450 -8.407360 -2.761840 -0.074811 -8.004520 3.315060 -0.346562 4.757520 -3.300410 -1.103010 -3.136740
-16.562599 90.838799 151.772995 -136.302002 -80.137497 -142.520004 -174.917999 12.006100 79.843002 -29.721399 1.286290 -4.288370 71.226303 6.599530 -1.394640 12.188300 -11.954700 6.360560 174.104996 0.806515 81.893204 -59.631802 -23.297501 -6.447270 54.098400 3.393210 1.238320 21.353800 1.695630 4.001360 0.994833 8.152420 -89.469200 10.560000 2.225400 0.854824 -1.109280 2.260870 0.756015 -23.653601 1.865610 1.484270 -3.640970 1.865600 1.484260 86.964203 -29.930201 -112.750999 41.292400 -9.200690 -8.203780 4.709390 -23.062201 -11.077500 -24.393700 -0.433902 -8.915940 -88.806602 -57.217098 81.828499 -17.226999 7.788650 -4.812740 1.077760 9.970270 -7.170810 -1.075620 -0.130458 -7.933900 4.942970 0.450493 4.677370 -3.119290 -0.376077 -3.576680
-16.695198 91.886002 159.063995 -140.852005 -80.704201 -145.203003 -175.548004 5.560230 81.031097 -26.888901 1.943860 -3.137480 74.174500 8.659670 -1.309570 13.165900 -11.550800 6.901120 176.960007 10.697200 85.584297 -62.076401 -16.150600 -5.544780 63.902000 -2.494530 -1.615620 23.118200 1.226970 3.942620 0.524646 8.211940 -89.718903 10.448500 1.173980 0.454351 -1.222040 1.192840 0.402232 -23.759701 0.983156 0.786188 -3.747020 0.983163 0.786200 87.117699 -30.367100 -112.252998 42.296398 -8.610110 -3.779330 4.713960 -25.202900 -11.801500 -22.223600 -0.799049 -7.665910 -89.490196 -56.836300 80.812698 -13.401100 7.133910 -12.395500 1.746310 10.385500 -8.211230 -0.586614 -0.140141 -7.683780 4.078290 1.319150 4.141680 -1.920090 0.573405 -2.543090
-17.097298 92.694000 166.082993 -150.419998 -82.732597 -151.535995 -175.679001 0.025372 83.900200 -23.333000 3.885220 -1.258310 76.496597 9.502550 -2.278330 15.165100 -11.007700 8.741810 177.925995 16.571400 90.183998 -45.687302 -5.676310 -3.135870 67.341499 -4.207780 -0.287681 21.800699 1.752500 3.368880 0.162549 8.176360 -90.109802 10.521400 0.273415 -0.242573 -1.149530 0.262472 -0.254384 -23.684799 0.333676 -0.149188 -3.672190 0.333678 -0.149194 87.507103 -31.112000 -111.167000 42.568100 -8.181620 0.715881 3.807730 -25.086300 -13.245100 -22.876600 -0.545983 -9.121330 -89.257896 -53.561100 80.534401 -13.570700 7.334080 -21.072201 2.411070 9.259460 -9.497310 0.422783 -0.184408 -8.216280 3.748130 1.176710 1.252300 -1.490820 0.938977 -0.727945
-17.699598 92.033997 173.569992 -163.501999 -84.598198 -163.852005 -174.996994 -5.042970 85.327599 -21.051701 6.144950 -0.734664 79.877800 11.209700 -3.127010 16.141001 -10.456000 9.004510 177.175003 17.827499 91.739799 -19.854200 -7.204050 -0.344408 61.562000 -1.527980 -1.398650 26.003300 0.583395 2.417990 -0.041081 8.151240 -90.202103 10.570800 -0.174666 -0.386004 -1.100200 -0.191480 -0.377945 -23.634899 -0.050582 -0.420650 -3.622270 -0.050581 -0.420650 87.505096 -31.873400 -110.841003 42.846600 -7.253260 4.470000 3.385610 -25.290600 -14.066600 -22.231701 -0.394832 -10.244100 -89.346397 -50.178501 79.744003 -13.768500 8.842300 -28.084000 3.685950 10.492300 -14.368400 1.199450 -0.251778 -9.573060 6.086620 0.585823 -1.733600 -2.440830 0.903774 0.709421
-18.307299 90.243797 182.203995 -176.580994 -85.236504 -177.449005 -173.645004 -11.595900 86.656898 -19.271799 8.023550 -1.061420 84.061600 13.962300 -3.597200 17.602699 -9.752950 9.739200 176.940994 18.525499 92.473503 -5.418480 -4.169820 1.223030 62.726398 -1.797950 -0.359012 28.581699 -0.171184 1.795130 -0.161210 8.157150 -90.126701 10.558600 -0.379249 -0.218273 -1.112310 -0.388488 -0.201374 -23.647600 -0.296119 -0.322159 -3.634970 -0.296111 -0.322158 87.151398 -33.097000 -110.989998 42.503502 -6.477510 5.840600 4.082170 -25.790800 -12.621900 -23.186199 -0.482328 -9.730480 -89.450104 -49.834099 79.516502 -15.104500 8.148580 -32.382198 6.764970 13.965100 -19.700300 2.233640 -0.349640 -10.825100 7.882700 0.089890 -3.439430 -2.833070 0.794176 1.016880
-18.848499 89.038200 192.385986 164.813004 -85.377800 165.251999 -171.737000 -17.369101 89.630402 -18.790899 10.244300 -0.325029 81.434303 13.602700 -1.828680 25.917101 -4.796250 11.849800 177.789993 21.749100 94.395103 -14.059000 -7.862290 0.914847 60.230400 0.309870 -1.182490 24.071899 1.384020 1.415690 -0.314266 8.061820 -90.304703 10.748500 -0.766318 -0.535268 -0.922289 -0.789123 -0.501034 -23.457701 -0.570025 -0.740833 -3.445060 -0.570018 -0.740829 87.729401 -33.848499 -109.602997 42.003799 -6.025940 5.237730 4.667410 -24.016100 -11.345000 -21.978300 -0.491758 -9.265590 -89.833801 -50.834499 79.152000 -17.691299 8.836530 -31.325399 8.324550 16.956200 -21.715401 3.108800 -0.382215 -10.502900 9.308980 0.195524 -3.571860 -4.153620 0.940616 1.572200
-19.120798 89.276001 203.603989 141.003006 -82.741402 143.391006 -170.259003 -15.102900 94.314796 -31.990299 16.009300 2.087660 68.243797 5.762850 0.758340 33.825199 0.571180 11.672600 176.348999 21.026501 95.815598 -26.910200 -8.428450 2.172250 61.284199 0.223974 -2.009170 15.460400 3.301350 5.227610 -0.576071 7.874220 -90.626602 11.117600 -1.437510 -1.107480 -0.552992 -1.484860 -1.043140 -23.088100 -1.038250 -1.488280 -3.075470 -1.038250 -1.488290 88.292397 -32.249298 -109.189003 43.172901 -4.609120 5.745440 4.000450 -25.276600 -11.999400 -21.800699 -0.428738 -10.176900 -89.681000 -51.955898 79.607002 -19.545401 12.433100 -27.336599 4.125890 21.554399 -14.363100 0.710655 -0.207568 -8.716720 7.418160 0.261060 -0.858757 -5.239430 0.434942 -0.142897
-19.120798 89.276001 203.603989 159.32115042374346 -82.5018264383407 158.23664890956897 -170.529999 -14.9047 93.511497 -30.0252 16.7309 1.67757 68.779404 6.4664 1.01294 30.621201 -1.94121 13.1547 175.800003 16.664499 92.866798 -24.266899 -7.31202 1.15505 60.489201 0.318612 -1.1883 18.128599 2.41344 5.57423 -0.674987 7.92246 -90.585297 11.0208 -1.61487 -1.01067 -0.649529 -1.65778 -0.938609 -23.1866 -1.23651 -1.44927 -3.17398 -1.2365 -1.44927 89.693001 -32.608101 -106.383003 44.360901 -4.50404 8.87101 4.09928 -27.0805 -10.7996 -20.677299 -0.486142 -10.7594 -88.431503 -50.769402 81.220596 -17.8188 1.85347 -10.7489 9.02335 15.6856 -18.708599 1.53228 -0.299016 -10.4638 -3.87963 3.41818 3.84429 -6.90862 2.92459 1.73407
-20.00000534163279 89.71230299999999 210.2093540745603 160.77112541341367 -80.66509366840656 157.65866319434116 -170.479004 -3.52353 97.861198 -51.382301 18.061399 3.26761 57.586899 -1.41475 -0.819249 12.9183 -10.6369 4.76648 175.574005 11.6798 95.044899 -26.952801 -6.22234 2.09021 64.999603 -2.39905 -2.1277 19.320299 2.09842 5.3829 -0.345556 8.10376 -90.693398 10.6588 -1.00732 -1.28688 -1.01232 -1.06297 -1.24131 -23.5436 -0.574042 -1.53007 -3.531 -0.574041 -1.53008 89.472298 -32.8685 -106.708 42.554199 -6.5765 5.20438 3.69109 -27.433399 -13.0265 -22.2127 -0.510656 -10.3045 -88.453003 -49.556499 80.961197 -22.0464 4.7512 -5.70705 6.4451 19.105101 -14.302 -0.184919 -0.177462 -8.93746 -2.98094 2.41589 2.09949 -5.23732 2.13605 0.9061
